<mxfile host="Electron" agent="Mozilla/5.0 (Windows NT 10.0; Win64; x64) AppleWebKit/537.36 (KHTML, like Gecko) draw.io/26.2.15 Chrome/134.0.6998.205 Electron/35.2.1 Safari/537.36" version="26.2.15">
  <diagram name="Page-1" id="zL9AyLv3tqFWvOaM4EUN">
    <mxGraphModel dx="1730" dy="1057" grid="1" gridSize="10" guides="1" tooltips="1" connect="1" arrows="1" fold="1" page="1" pageScale="1" pageWidth="1920" pageHeight="1200" math="0" shadow="0">
      <root>
        <mxCell id="0" />
        <mxCell id="1" parent="0" />
        <mxCell id="_z-7bHXSivQK3M6eyOZb-1" value="&lt;b&gt;&lt;font&gt;Integration Model&lt;/font&gt;&lt;/b&gt;" style="text;html=1;align=center;verticalAlign=middle;resizable=0;points=[];autosize=1;strokeColor=none;fillColor=none;fontSize=28;" parent="1" vertex="1">
          <mxGeometry x="45" y="55" width="260" height="50" as="geometry" />
        </mxCell>
        <mxCell id="_z-7bHXSivQK3M6eyOZb-2" value="crm_cust_info" style="swimlane;fontStyle=0;childLayout=stackLayout;horizontal=1;startSize=30;horizontalStack=0;resizeParent=1;resizeParentMax=0;resizeLast=0;collapsible=1;marginBottom=0;whiteSpace=wrap;html=1;rounded=1;fillColor=#dae8fc;strokeColor=#6c8ebf;fontSize=26;" parent="1" vertex="1">
          <mxGeometry x="560" y="520" width="240" height="110" as="geometry" />
        </mxCell>
        <mxCell id="_z-7bHXSivQK3M6eyOZb-3" value="cst_id" style="text;strokeColor=none;fillColor=none;align=left;verticalAlign=middle;spacingLeft=4;spacingRight=4;overflow=hidden;points=[[0,0.5],[1,0.5]];portConstraint=eastwest;rotatable=0;whiteSpace=wrap;html=1;fontSize=26;" parent="_z-7bHXSivQK3M6eyOZb-2" vertex="1">
          <mxGeometry y="30" width="240" height="40" as="geometry" />
        </mxCell>
        <mxCell id="_z-7bHXSivQK3M6eyOZb-28" value="cst_key" style="text;strokeColor=none;fillColor=none;align=left;verticalAlign=middle;spacingLeft=4;spacingRight=4;overflow=hidden;points=[[0,0.5],[1,0.5]];portConstraint=eastwest;rotatable=0;whiteSpace=wrap;html=1;fontSize=26;" parent="_z-7bHXSivQK3M6eyOZb-2" vertex="1">
          <mxGeometry y="70" width="240" height="40" as="geometry" />
        </mxCell>
        <mxCell id="_z-7bHXSivQK3M6eyOZb-6" value="Customer Information" style="text;html=1;align=center;verticalAlign=middle;whiteSpace=wrap;rounded=0;fontSize=16;" parent="1" vertex="1">
          <mxGeometry x="575" y="490" width="210" height="20" as="geometry" />
        </mxCell>
        <mxCell id="_z-7bHXSivQK3M6eyOZb-7" value="crm_prd_info" style="swimlane;fontStyle=0;childLayout=stackLayout;horizontal=1;startSize=30;horizontalStack=0;resizeParent=1;resizeParentMax=0;resizeLast=0;collapsible=1;marginBottom=0;whiteSpace=wrap;html=1;rounded=1;fillColor=#dae8fc;strokeColor=#6c8ebf;fontSize=26;" parent="1" vertex="1">
          <mxGeometry x="560" y="370" width="240" height="70" as="geometry" />
        </mxCell>
        <mxCell id="_z-7bHXSivQK3M6eyOZb-8" value="prd_key" style="text;strokeColor=none;fillColor=none;align=left;verticalAlign=middle;spacingLeft=4;spacingRight=4;overflow=hidden;points=[[0,0.5],[1,0.5]];portConstraint=eastwest;rotatable=0;whiteSpace=wrap;html=1;fontSize=26;" parent="_z-7bHXSivQK3M6eyOZb-7" vertex="1">
          <mxGeometry y="30" width="240" height="40" as="geometry" />
        </mxCell>
        <mxCell id="_z-7bHXSivQK3M6eyOZb-9" value="Previous &amp;amp; Current Product Information" style="text;html=1;align=center;verticalAlign=middle;whiteSpace=wrap;rounded=0;fontSize=16;" parent="1" vertex="1">
          <mxGeometry x="530" y="330" width="300" height="20" as="geometry" />
        </mxCell>
        <mxCell id="_z-7bHXSivQK3M6eyOZb-11" value="crm_sales_details" style="swimlane;fontStyle=0;childLayout=stackLayout;horizontal=1;startSize=30;horizontalStack=0;resizeParent=1;resizeParentMax=0;resizeLast=0;collapsible=1;marginBottom=0;whiteSpace=wrap;html=1;rounded=1;fillColor=#dae8fc;strokeColor=#6c8ebf;fontSize=26;" parent="1" vertex="1">
          <mxGeometry x="90" y="420" width="240" height="110" as="geometry" />
        </mxCell>
        <mxCell id="_z-7bHXSivQK3M6eyOZb-12" value="prd_key" style="text;strokeColor=none;fillColor=none;align=left;verticalAlign=middle;spacingLeft=4;spacingRight=4;overflow=hidden;points=[[0,0.5],[1,0.5]];portConstraint=eastwest;rotatable=0;whiteSpace=wrap;html=1;fontSize=26;" parent="_z-7bHXSivQK3M6eyOZb-11" vertex="1">
          <mxGeometry y="30" width="240" height="40" as="geometry" />
        </mxCell>
        <mxCell id="_z-7bHXSivQK3M6eyOZb-14" value="cst_id" style="text;strokeColor=none;fillColor=none;align=left;verticalAlign=middle;spacingLeft=4;spacingRight=4;overflow=hidden;points=[[0,0.5],[1,0.5]];portConstraint=eastwest;rotatable=0;whiteSpace=wrap;html=1;fontSize=26;" parent="_z-7bHXSivQK3M6eyOZb-11" vertex="1">
          <mxGeometry y="70" width="240" height="40" as="geometry" />
        </mxCell>
        <mxCell id="_z-7bHXSivQK3M6eyOZb-13" value="Transactional Records About Sales &amp;amp; Orders" style="text;html=1;align=center;verticalAlign=middle;whiteSpace=wrap;rounded=0;fontSize=16;" parent="1" vertex="1">
          <mxGeometry x="60" y="390" width="300" height="20" as="geometry" />
        </mxCell>
        <mxCell id="_z-7bHXSivQK3M6eyOZb-19" style="edgeStyle=orthogonalEdgeStyle;rounded=0;orthogonalLoop=1;jettySize=auto;html=1;entryX=0;entryY=0.5;entryDx=0;entryDy=0;" parent="1" source="_z-7bHXSivQK3M6eyOZb-14" target="_z-7bHXSivQK3M6eyOZb-3" edge="1">
          <mxGeometry relative="1" as="geometry" />
        </mxCell>
        <mxCell id="_z-7bHXSivQK3M6eyOZb-21" style="edgeStyle=orthogonalEdgeStyle;rounded=0;orthogonalLoop=1;jettySize=auto;html=1;entryX=0.01;entryY=0.31;entryDx=0;entryDy=0;entryPerimeter=0;" parent="1" source="_z-7bHXSivQK3M6eyOZb-12" target="_z-7bHXSivQK3M6eyOZb-8" edge="1">
          <mxGeometry relative="1" as="geometry" />
        </mxCell>
        <mxCell id="_z-7bHXSivQK3M6eyOZb-22" value="erp_cust_az12" style="swimlane;fontStyle=0;childLayout=stackLayout;horizontal=1;startSize=30;horizontalStack=0;resizeParent=1;resizeParentMax=0;resizeLast=0;collapsible=1;marginBottom=0;whiteSpace=wrap;html=1;rounded=1;fillColor=#fff2cc;strokeColor=#d6b656;fontSize=26;" parent="1" vertex="1">
          <mxGeometry x="1205" y="510" width="240" height="70" as="geometry" />
        </mxCell>
        <mxCell id="_z-7bHXSivQK3M6eyOZb-23" value="cid" style="text;strokeColor=none;fillColor=none;align=left;verticalAlign=middle;spacingLeft=4;spacingRight=4;overflow=hidden;points=[[0,0.5],[1,0.5]];portConstraint=eastwest;rotatable=0;whiteSpace=wrap;html=1;fontSize=26;" parent="_z-7bHXSivQK3M6eyOZb-22" vertex="1">
          <mxGeometry y="30" width="240" height="40" as="geometry" />
        </mxCell>
        <mxCell id="_z-7bHXSivQK3M6eyOZb-29" value="Extra Customer Information (Birthdate)" style="text;html=1;align=center;verticalAlign=middle;whiteSpace=wrap;rounded=0;fontSize=16;" parent="1" vertex="1">
          <mxGeometry x="1185" y="475" width="310" height="20" as="geometry" />
        </mxCell>
        <mxCell id="_z-7bHXSivQK3M6eyOZb-30" style="edgeStyle=orthogonalEdgeStyle;rounded=0;orthogonalLoop=1;jettySize=auto;html=1;entryX=1.042;entryY=0.75;entryDx=0;entryDy=0;entryPerimeter=0;" parent="1" source="_z-7bHXSivQK3M6eyOZb-23" target="_z-7bHXSivQK3M6eyOZb-28" edge="1">
          <mxGeometry relative="1" as="geometry" />
        </mxCell>
        <mxCell id="_z-7bHXSivQK3M6eyOZb-31" value="erp_loc_a101" style="swimlane;fontStyle=0;childLayout=stackLayout;horizontal=1;startSize=30;horizontalStack=0;resizeParent=1;resizeParentMax=0;resizeLast=0;collapsible=1;marginBottom=0;whiteSpace=wrap;html=1;rounded=1;fillColor=#fff2cc;strokeColor=#d6b656;fontSize=26;" parent="1" vertex="1">
          <mxGeometry x="1205" y="630" width="240" height="70" as="geometry" />
        </mxCell>
        <mxCell id="_z-7bHXSivQK3M6eyOZb-32" value="cid" style="text;strokeColor=none;fillColor=none;align=left;verticalAlign=middle;spacingLeft=4;spacingRight=4;overflow=hidden;points=[[0,0.5],[1,0.5]];portConstraint=eastwest;rotatable=0;whiteSpace=wrap;html=1;fontSize=26;" parent="_z-7bHXSivQK3M6eyOZb-31" vertex="1">
          <mxGeometry y="30" width="240" height="40" as="geometry" />
        </mxCell>
        <mxCell id="_z-7bHXSivQK3M6eyOZb-33" style="edgeStyle=orthogonalEdgeStyle;rounded=0;orthogonalLoop=1;jettySize=auto;html=1;entryX=0.95;entryY=0.778;entryDx=0;entryDy=0;entryPerimeter=0;" parent="1" source="_z-7bHXSivQK3M6eyOZb-32" target="_z-7bHXSivQK3M6eyOZb-28" edge="1">
          <mxGeometry relative="1" as="geometry" />
        </mxCell>
        <mxCell id="_z-7bHXSivQK3M6eyOZb-34" value="Location of Customers (Country)" style="text;html=1;align=center;verticalAlign=middle;whiteSpace=wrap;rounded=0;fontSize=16;" parent="1" vertex="1">
          <mxGeometry x="1185" y="600" width="310" height="20" as="geometry" />
        </mxCell>
        <mxCell id="_z-7bHXSivQK3M6eyOZb-35" value="erp_px_cat_g1v2" style="swimlane;fontStyle=0;childLayout=stackLayout;horizontal=1;startSize=30;horizontalStack=0;resizeParent=1;resizeParentMax=0;resizeLast=0;collapsible=1;marginBottom=0;whiteSpace=wrap;html=1;rounded=1;fillColor=#fff2cc;strokeColor=#d6b656;fontSize=26;" parent="1" vertex="1">
          <mxGeometry x="1220" y="340" width="240" height="70" as="geometry" />
        </mxCell>
        <mxCell id="_z-7bHXSivQK3M6eyOZb-36" value="id" style="text;strokeColor=none;fillColor=none;align=left;verticalAlign=middle;spacingLeft=4;spacingRight=4;overflow=hidden;points=[[0,0.5],[1,0.5]];portConstraint=eastwest;rotatable=0;whiteSpace=wrap;html=1;fontSize=26;" parent="_z-7bHXSivQK3M6eyOZb-35" vertex="1">
          <mxGeometry y="30" width="240" height="40" as="geometry" />
        </mxCell>
        <mxCell id="_z-7bHXSivQK3M6eyOZb-37" value="Product Categories" style="text;html=1;align=center;verticalAlign=middle;whiteSpace=wrap;rounded=0;fontSize=16;" parent="1" vertex="1">
          <mxGeometry x="1185" y="305" width="310" height="20" as="geometry" />
        </mxCell>
        <mxCell id="_z-7bHXSivQK3M6eyOZb-38" style="edgeStyle=orthogonalEdgeStyle;rounded=0;orthogonalLoop=1;jettySize=auto;html=1;entryX=1;entryY=0.5;entryDx=0;entryDy=0;" parent="1" source="_z-7bHXSivQK3M6eyOZb-36" target="_z-7bHXSivQK3M6eyOZb-8" edge="1">
          <mxGeometry relative="1" as="geometry" />
        </mxCell>
        <mxCell id="_z-7bHXSivQK3M6eyOZb-39" value="" style="rounded=1;whiteSpace=wrap;html=1;fillColor=none;dashed=1;" parent="1" vertex="1">
          <mxGeometry x="60" y="220" width="780" height="510" as="geometry" />
        </mxCell>
        <mxCell id="_z-7bHXSivQK3M6eyOZb-43" value="" style="rounded=1;whiteSpace=wrap;html=1;fillColor=none;dashed=1;" parent="1" vertex="1">
          <mxGeometry x="965" y="220" width="780" height="510" as="geometry" />
        </mxCell>
        <mxCell id="_z-7bHXSivQK3M6eyOZb-45" value="" style="rounded=1;whiteSpace=wrap;html=1;fillColor=#fff2cc;strokeColor=#d6b656;arcSize=0;" parent="1" vertex="1">
          <mxGeometry x="1215" y="160" width="290" height="60" as="geometry" />
        </mxCell>
        <mxCell id="_z-7bHXSivQK3M6eyOZb-46" value="ERP" style="text;html=1;align=center;verticalAlign=middle;whiteSpace=wrap;rounded=1;fontSize=40;fontStyle=1;fillColor=none;strokeColor=none;" parent="1" vertex="1">
          <mxGeometry x="1335" y="175" width="60" height="30" as="geometry" />
        </mxCell>
        <mxCell id="_z-7bHXSivQK3M6eyOZb-48" value="" style="rounded=1;whiteSpace=wrap;html=1;fillColor=#dae8fc;strokeColor=#6c8ebf;arcSize=0;" parent="1" vertex="1">
          <mxGeometry x="285" y="160" width="290" height="60" as="geometry" />
        </mxCell>
        <mxCell id="_z-7bHXSivQK3M6eyOZb-49" value="CRM" style="text;html=1;align=center;verticalAlign=middle;whiteSpace=wrap;rounded=1;fontSize=40;fontStyle=1;fillColor=#dae8fc;strokeColor=none;" parent="1" vertex="1">
          <mxGeometry x="405" y="175" width="60" height="30" as="geometry" />
        </mxCell>
      </root>
    </mxGraphModel>
  </diagram>
</mxfile>
